<mxfile host="app.diagrams.net" modified="2024-03-04T16:00:45.346Z" agent="Mozilla/5.0 (X11; Linux x86_64) AppleWebKit/537.36 (KHTML, like Gecko) Chrome/122.0.0.0 Safari/537.36" version="24.0.1" etag="4-aObx_KcxyfEWQw2EOG" type="github">
  <diagram name="Page-1" id="rrnRkHXitlQrABg2udhg">
    <mxGraphModel>
      <root>
        <mxCell id="0" />
        <mxCell id="1" parent="0" />
      </root>
    </mxGraphModel>
  </diagram>
</mxfile>
